<?xml version="1.0" standalone="no"?>
<!DOCTYPE svg PUBLIC "-//W3C//DTD SVG 20010904//EN"
 "http://www.w3.org/TR/2001/REC-SVG-20010904/DTD/svg10.dtd">
<svg version="1.0" xmlns="http://www.w3.org/2000/svg"
 width="640.000000pt" height="640.000000pt" viewBox="0 0 640.000000 640.000000"
 preserveAspectRatio="xMidYMid meet">
<metadata>
Created by potrace 1.15, written by Peter Selinger 2001-2017
</metadata>
<g transform="translate(0.000000,640.000000) scale(0.100000,-0.100000)"
fill="#000000" stroke="none">
<path d="M0 3200 l0 -3200 3200 0 3200 0 0 3200 0 3200 -3200 0 -3200 0 0
-3200z m760 567 c0 -2 -35 -40 -77 -84 -43 -44 -87 -95 -97 -114 -22 -39 -18
-36 49 46 49 58 108 116 147 143 14 10 11 2 -11 -35 -16 -26 -38 -57 -49 -68
-10 -11 -17 -26 -15 -32 2 -6 -1 -14 -6 -18 -6 -3 -11 -15 -11 -26 0 -10 -4
-27 -9 -37 -12 -21 -39 -142 -46 -202 l-5 -45 11 40 c6 22 15 57 20 78 11 42
34 41 26 -2 -3 -14 0 -35 5 -45 6 -11 11 -33 10 -48 0 -15 4 -28 9 -28 6 0 6
-7 -1 -19 -8 -16 -6 -23 11 -35 13 -8 19 -21 16 -30 -3 -8 0 -20 8 -26 8 -6
11 -18 8 -26 -3 -8 0 -14 6 -14 6 0 11 -7 11 -15 0 -26 113 -237 165 -309 111
-153 313 -365 373 -392 35 -16 48 -35 39 -58 -5 -13 -10 -13 -36 0 -16 8 -54
17 -83 20 -98 9 -272 36 -383 60 -120 26 -217 68 -255 110 l-25 27 38 -22 c53
-32 56 -21 4 12 -77 49 -112 88 -131 150 -10 31 -20 57 -23 57 -2 0 -2 -8 1
-17 2 -10 7 -33 11 -51 l7 -33 -37 38 c-70 72 -68 62 -61 283 7 199 17 316 37
420 31 160 52 246 63 257 6 6 58 25 116 41 58 17 116 35 130 41 27 10 40 13
40 8z m4084 -172 c37 -34 38 -37 32 -82 -7 -53 -26 -83 -26 -42 0 75 -270 80
-480 9 -36 -12 -69 -23 -75 -24 -5 -1 -20 -7 -32 -14 -18 -10 -22 -10 -18 0 5
13 75 48 96 48 6 0 9 10 7 23 -3 17 0 23 14 24 10 1 43 13 74 27 30 14 71 28
92 32 20 4 50 12 65 19 15 6 69 13 120 14 l92 2 39 -36z m294 -538 c7 -89 6
-103 -16 -160 -52 -136 -69 -192 -59 -199 6 -3 1 -17 -12 -33 -15 -20 -21 -23
-21 -11 0 9 3 16 8 16 4 0 8 50 10 112 2 95 7 120 29 167 34 74 38 116 23 206
-12 69 -14 74 -27 55 -8 -11 -20 -48 -27 -82 -18 -80 -25 -98 -41 -98 -7 0
-24 -16 -39 -35 -33 -43 -180 -161 -308 -248 l-97 -65 72 -12 c93 -15 168 -51
211 -102 36 -42 77 -143 75 -187 -1 -20 -3 -17 -10 13 -17 73 -61 120 -87 94
-5 -5 -8 -30 -6 -56 4 -44 3 -45 -6 -14 -6 17 -17 32 -25 32 -8 0 -15 4 -15 9
0 5 -24 25 -52 44 -60 41 -182 84 -266 95 l-57 7 70 50 c38 27 103 82 145 122
97 95 172 159 182 155 11 -3 10 12 -2 24 -7 7 9 26 52 59 57 44 231 205 222
205 -3 0 3 12 13 26 l17 26 18 -59 c10 -32 22 -102 26 -156z m-2134 -84 c-4
-38 -8 -113 -9 -167 0 -70 -4 -101 -12 -103 -7 -3 -13 0 -13 6 0 13 -73 -33
-108 -67 -32 -31 -44 -78 -32 -122 5 -19 10 -51 10 -70 l0 -35 -19 28 c-31 47
-46 130 -31 167 7 17 10 33 7 37 -9 8 31 83 44 83 6 0 7 5 4 10 -4 6 -2 17 4
24 7 8 10 20 9 27 -2 9 8 15 25 17 15 2 27 7 27 11 0 14 40 21 40 8 1 -25 18
20 23 62 5 43 5 43 -24 39 -33 -5 -34 -1 -17 54 11 38 32 56 67 57 11 1 12
-11 5 -66z m369 -41 c42 -14 77 -28 77 -32 0 -4 -17 -19 -38 -32 l-38 -26 -39
23 c-22 12 -52 25 -66 28 -29 7 -64 51 -54 68 8 13 61 3 158 -29z m-170 -79
c50 -3 111 -29 139 -60 21 -23 48 -86 47 -110 0 -14 -2 -13 -9 5 -5 12 -12 22
-14 22 -3 0 -15 -18 -26 -40 -17 -34 -20 -57 -19 -140 2 -98 11 -120 24 -57 4
17 11 37 15 42 4 6 12 30 18 55 7 34 10 38 11 17 1 -27 -65 -247 -75 -247 -2
0 -1 12 2 28 4 15 4 25 1 22 -8 -8 -39 -123 -39 -147 0 -16 -6 -23 -20 -23
-16 0 -18 -3 -9 -13 8 -11 5 -19 -12 -35 -13 -12 -26 -20 -29 -17 -8 8 -36
-27 -62 -79 -22 -44 -24 -45 -30 -22 -4 16 4 45 24 88 16 34 30 72 31 83 0 19
1 19 8 2 6 -15 9 -16 17 -5 46 60 101 280 91 367 -9 85 -71 130 -188 139 -38
2 -69 9 -69 13 0 5 5 9 10 9 6 0 9 3 8 8 -1 4 8 26 21 50 12 24 21 48 18 55
-2 6 8 23 22 38 l26 28 10 -37 c10 -35 13 -37 58 -39z m362 -73 c4 -11 8 -30
9 -43 2 -12 9 -35 15 -51 20 -49 11 -70 -32 -77 -20 -3 -49 -17 -63 -30 -29
-26 -162 -294 -171 -343 -12 -63 -133 -255 -133 -211 0 21 16 51 52 98 16 20
27 37 23 37 -3 0 0 6 8 14 7 8 31 63 52 123 21 59 45 124 54 143 8 19 15 37
16 40 1 3 14 31 29 62 15 32 29 80 31 109 4 50 8 59 65 121 30 33 37 34 45 8z
m-3075 -153 c0 -5 -9 -2 -20 8 -30 28 -24 7 10 -32 17 -19 47 -69 67 -111 44
-92 84 -152 141 -210 23 -23 42 -44 42 -46 0 -3 -50 13 -112 34 -83 29 -116
36 -130 29 -15 -8 -20 -5 -29 18 -42 108 -77 257 -86 368 l-6 80 62 -64 c33
-34 61 -68 61 -74z m-141 104 c6 -10 8 -21 5 -24 -13 -13 44 -276 83 -379 31
-84 25 -112 -20 -102 -18 4 -42 8 -54 10 -12 1 -27 5 -33 9 -9 6 -9 2 -1 -14
13 -24 0 -28 -19 -6 -7 8 -20 15 -29 15 -9 0 -22 5 -29 12 -25 25 -9 223 32
388 28 110 43 132 65 91z m3566 -1 c23 -25 16 -32 -37 -37 -56 -5 -148 -37
-227 -80 -62 -33 -64 -34 -48 -9 10 14 17 39 17 56 0 16 2 30 4 30 2 0 12 3
22 7 12 4 15 3 10 -5 -10 -16 36 -16 52 0 7 7 12 8 12 4 0 -4 16 2 35 14 69
43 132 51 160 20z m-2194 -73 c50 -21 129 -74 129 -87 0 -10 -49 -10 -55 0 -7
12 -26 14 -23 3 1 -5 -3 -18 -10 -29 -6 -12 -9 -24 -5 -27 3 -3 -7 -9 -21 -13
-26 -6 -25 -7 26 -39 58 -37 78 -37 36 0 -15 13 -24 25 -20 27 4 2 18 17 30
35 24 34 57 37 78 8 23 -30 3 -64 -76 -130 -82 -68 -112 -86 -60 -35 16 16 30
32 30 34 0 10 -44 46 -56 46 -7 0 -15 -13 -19 -30 -4 -16 -10 -32 -15 -35 -11
-7 -41 -67 -36 -72 2 -2 11 8 20 22 9 14 21 25 27 25 6 0 3 -7 -5 -16 -21 -21
-20 -23 7 -17 20 5 20 4 -5 -16 l-28 -22 -67 27 c-56 23 -83 28 -155 28 -49 0
-88 4 -88 8 0 4 5 8 11 8 5 0 8 4 5 8 -3 5 3 33 13 63 10 30 23 81 29 113 11
56 34 96 55 96 5 0 23 6 40 14 50 22 59 24 107 25 25 0 69 -10 101 -22z m1439
-72 c44 -33 80 -85 80 -117 0 -7 -14 -40 -30 -73 -17 -33 -30 -65 -30 -72 0
-7 -7 -13 -15 -13 -8 0 -15 -5 -15 -11 0 -5 5 -7 10 -4 13 8 13 -5 0 -25 -8
-13 -10 -13 -10 -1 0 11 -4 9 -14 -5 -14 -18 -15 -18 -12 6 2 14 6 32 9 40 23
63 47 155 47 181 0 23 -11 42 -45 76 -42 43 -47 45 -88 41 -88 -10 -138 -55
-139 -124 0 -43 20 -92 52 -124 17 -17 19 -17 22 -2 4 18 33 -68 44 -128 l7
-35 -27 24 c-14 14 -26 28 -26 32 0 5 -11 25 -25 45 -27 39 -75 183 -75 223 0
25 57 86 94 102 12 5 47 7 80 4 46 -4 68 -12 106 -40z m2075 1 c51 -13 95 -34
129 -60 16 -13 17 -18 5 -32 -13 -16 -12 -16 8 -6 12 7 24 8 27 3 7 -11 -41
-21 -74 -16 -115 17 -151 25 -171 35 -13 8 -41 10 -71 7 -52 -7 -61 3 -26 27
12 9 18 19 14 23 -4 4 12 13 36 19 58 16 65 16 123 0z m-1321 -53 c42 -45 44
-53 12 -49 -14 1 -73 -8 -133 -20 -143 -30 -172 -38 -210 -57 -39 -21 -53 -21
-53 -3 0 21 109 85 156 92 6 1 27 9 45 17 44 21 132 56 141 56 4 1 23 -16 42
-36z m2086 -37 c19 -9 28 -15 20 -12 -10 2 -23 -14 -39 -50 l-24 -54 -51 6
c-28 3 -65 10 -83 15 -18 6 -139 11 -270 12 -197 2 -234 4 -215 14 13 7 34 10
47 7 14 -3 26 0 32 8 7 13 187 61 268 72 17 2 86 3 155 2 91 -2 135 -8 160
-20z m106 -26 c3 0 1 7 -6 15 -17 21 -1 19 38 -5 35 -21 39 -45 26 -144 -6
-40 -11 -49 -40 -62 -19 -9 -34 -20 -34 -25 0 -10 -153 -84 -195 -93 -29 -7
-29 -7 15 42 25 27 61 69 80 95 27 36 42 46 65 47 30 1 30 1 5 11 -14 6 -20
13 -14 17 5 4 22 23 37 43 26 35 35 55 20 46 -5 -2 -19 7 -33 21 l-25 25 27
-16 c15 -9 30 -17 34 -17z m-3642 -96 c3 -9 6 -33 6 -55 0 -54 26 -179 56
-265 27 -80 28 -84 14 -84 -5 0 -10 7 -10 15 0 8 -4 15 -9 15 -5 0 -12 11 -15
24 -3 13 -26 67 -51 120 -27 58 -45 110 -44 129 l1 32 8 -35 c4 -19 13 -46 19
-60 l12 -25 -7 25 c-14 53 -19 136 -10 158 11 26 21 28 30 6z m3444 -23 l24
-6 -26 -24 c-14 -14 -26 -32 -26 -42 0 -9 -7 -22 -15 -29 -8 -7 -13 -16 -10
-19 2 -4 -1 -8 -8 -9 -7 -1 -32 -6 -57 -11 -66 -15 -116 -13 -130 4 -7 8 -23
15 -36 15 -12 0 -25 4 -28 8 -6 11 69 29 154 38 62 7 64 8 31 17 -19 5 -45 7
-58 4 -17 -3 -21 -1 -13 8 17 21 -158 8 -356 -25 -61 -11 -159 -22 -218 -26
-95 -6 -106 -5 -106 10 0 18 7 22 65 30 l40 6 -30 -20 c-36 -24 -27 -25 37 -5
26 7 100 26 165 41 107 24 136 26 310 25 106 0 203 4 215 9 27 10 44 11 76 1z
m-959 -191 c1 -42 -3 -50 -67 -118 -38 -40 -83 -98 -101 -128 -42 -69 -38 -97
31 -198 69 -103 94 -129 117 -121 15 4 21 0 25 -22 3 -15 2 -41 -3 -58 -6 -18
-10 -23 -10 -11 -1 12 -6 16 -17 12 -8 -3 -12 -2 -9 4 3 5 -3 15 -15 22 -11 7
-20 16 -20 21 0 4 4 6 8 3 5 -3 -23 27 -61 67 -38 40 -80 95 -94 122 -33 65
-58 92 -113 120 -52 26 -147 47 -179 38 -32 -8 -25 9 16 36 27 17 34 19 30 7
-6 -16 2 -18 63 -18 35 0 40 2 40 17 0 14 28 21 55 15 6 -1 19 -5 30 -7 19 -5
19 -5 2 9 -17 12 -14 15 32 32 27 10 55 24 62 32 10 12 8 13 -12 5 -13 -5 -42
-18 -64 -29 -51 -25 -101 -36 -109 -24 -3 6 14 18 38 28 50 21 55 31 57 119 1
33 3 52 6 43 2 -10 11 -19 19 -19 8 -1 20 -2 27 -3 6 0 17 -17 23 -36 l11 -35
8 45 c4 24 7 79 7 122 0 43 3 78 8 78 12 0 20 -55 20 -141 0 -88 15 -105 26
-31 6 36 9 42 13 24 7 -26 22 -28 34 -6 5 8 12 12 17 9 16 -10 22 16 22 89 l0
71 13 -70 c8 -38 14 -90 14 -115z m-2744 20 c15 -6 29 -19 32 -30 3 -11 9 -20
13 -20 5 0 12 -9 15 -20 9 -27 -32 -93 -52 -86 -8 3 -29 6 -46 6 -24 0 -28 3
-17 10 12 8 11 10 -5 9 -11 -1 -31 -5 -45 -9 -25 -8 -25 -8 5 -10 29 -2 30 -2
5 -9 -14 -5 -29 -4 -35 1 -14 13 23 38 57 38 15 0 28 5 28 11 0 6 -8 8 -17 5
-54 -16 -73 -18 -73 -6 0 6 4 9 9 6 13 -8 61 11 61 24 0 6 -5 8 -12 4 -8 -5
-9 3 -5 28 5 32 3 35 -14 31 -10 -3 -19 -1 -19 5 0 10 23 16 72 21 9 0 29 -4
43 -9z m-1919 -192 c11 -11 9 -19 -14 -53 l-27 -40 -81 3 -82 3 20 42 c33 69
35 70 106 64 35 -3 70 -11 78 -19z m3049 -993 c21 -6 25 -9 13 -12 -21 -5 -21
-11 -4 -83 33 -139 70 -251 77 -238 10 18 79 281 79 302 0 9 -6 16 -14 16 -8
0 -17 3 -19 8 -3 4 15 5 39 4 35 -3 41 -6 31 -17 -7 -7 -40 -110 -72 -228 -34
-124 -63 -211 -67 -204 -4 7 -5 24 -2 39 5 24 -14 103 -73 307 -8 29 -18 49
-22 43 -4 -6 -19 5 -38 27 -22 26 -29 42 -22 52 6 10 9 10 9 2 0 -7 5 -13 10
-13 6 0 10 7 10 17 0 14 2 15 18 1 9 -8 31 -19 47 -23z m-2056 -47 c0 -52 -5
-51 -23 5 -8 25 -72 24 -86 -2 -11 -21 -14 -301 -4 -363 5 -28 11 -38 25 -38
11 0 19 -4 19 -10 0 -6 -32 -10 -75 -10 -41 0 -75 2 -75 5 0 3 11 10 25 15 25
9 25 11 26 127 2 199 -2 278 -14 286 -7 4 -28 6 -47 5 -33 -3 -35 -5 -38 -40
-5 -58 -22 -45 -22 16 l0 54 145 1 145 1 -1 -52z m151 42 c0 -5 -9 -10 -20
-10 -26 0 -32 -26 -28 -120 l3 -75 88 -3 87 -3 0 69 c0 87 -9 132 -26 132 -7
0 -16 5 -19 11 -5 7 47 9 172 6 l178 -4 2 -44 c1 -36 0 -39 -5 -14 -7 28 -10
30 -57 30 l-50 0 0 -90 0 -90 40 0 c33 0 40 4 46 25 4 16 7 1 7 -40 -1 -36 -3
-52 -5 -37 -4 26 -7 28 -46 25 l-42 -3 -3 -75 c-5 -113 -1 -120 58 -120 45 0
49 2 53 28 3 19 4 14 6 -15 l1 -43 -106 0 c-67 0 -103 4 -99 10 3 6 12 10 19
10 19 0 26 69 25 229 -2 182 -5 195 -48 199 -43 4 -51 -9 -50 -78 1 -30 0 -59
-1 -65 -1 -5 -2 -72 -1 -147 1 -113 4 -138 15 -138 8 0 18 -4 21 -10 4 -6 -22
-10 -69 -10 -44 0 -76 4 -76 10 0 6 11 10 24 10 21 0 24 6 30 53 3 28 6 73 6
100 l0 47 -89 0 -89 0 -4 -57 c-5 -98 1 -143 22 -143 11 0 22 -4 25 -10 4 -6
-21 -10 -67 -10 -71 0 -72 1 -52 18 19 15 21 29 23 122 3 165 -9 310 -25 310
-8 0 -14 5 -14 10 0 6 30 10 70 10 40 0 70 -4 70 -10z m887 -41 l2 -44 -11 33
c-10 29 -15 32 -49 32 -28 0 -41 -5 -49 -19 -11 -21 -14 -264 -4 -348 6 -43
10 -53 25 -53 11 0 19 -4 19 -10 0 -6 -30 -10 -71 -10 -44 0 -68 4 -64 10 3 6
12 10 19 10 20 0 26 56 26 236 0 181 -2 187 -67 182 -35 -3 -39 -6 -44 -38 -6
-34 -6 -33 -8 11 0 25 1 48 3 50 3 2 64 4 138 3 l133 -1 2 -44z m126 30 c-13
-5 -23 -14 -23 -22 0 -19 39 -237 47 -262 7 -23 24 28 64 192 13 57 27 103 31
103 3 0 9 -15 13 -32 16 -81 80 -287 86 -280 8 8 49 241 49 278 0 13 -7 24
-17 27 -10 3 2 5 27 6 26 0 40 -3 33 -7 -14 -9 -35 -103 -73 -320 -13 -72 -27
-129 -31 -125 -4 5 -10 24 -14 43 -4 26 -3 31 4 20 10 -13 11 -13 10 0 0 8 -4
24 -9 35 -8 19 -9 19 -9 1 -1 -25 -7 -18 -15 19 -5 22 -4 26 4 15 5 -8 10 -12
10 -7 0 18 -63 233 -71 242 -5 5 -2 -15 7 -44 8 -29 13 -55 11 -58 -3 -2 -8 9
-12 26 -4 17 -10 31 -15 31 -10 0 -8 7 -56 -184 -26 -103 -40 -143 -45 -130
-12 31 -11 66 3 58 8 -5 9 -2 5 10 -4 10 -7 24 -7 32 0 8 -6 13 -12 11 -8 -1
-14 10 -16 28 -2 24 -1 27 9 15 9 -13 10 -12 5 3 -3 10 -6 28 -6 40 0 18 -2
19 -10 7 -9 -13 -10 -13 -10 0 0 8 -3 26 -6 40 -4 20 -3 22 5 10 9 -12 11 -10
10 10 -1 14 -5 39 -9 55 -7 28 -8 29 -10 5 -1 -16 -8 -2 -19 39 -9 36 -22 66
-29 69 -29 9 1 17 55 13 45 -3 53 -5 36 -12z m696 4 c-22 -5 -29 -69 -29 -254
0 -168 2 -172 76 -167 47 3 49 4 60 43 l12 40 1 -35 c2 -80 1 -80 -120 -80
-66 0 -109 4 -109 10 0 6 6 10 14 10 17 0 25 29 28 95 1 43 3 39 8 -25 4 -47
6 5 7 140 0 124 -3 189 -7 155 l-7 -60 -1 52 c-1 30 -8 58 -17 66 -20 20 -14
23 47 18 29 -3 46 -6 37 -8z m639 2 c7 -3 12 -21 11 -47 l-1 -43 -10 38 c-10
38 -11 38 -57 35 l-46 -3 0 -90 0 -90 40 0 c33 0 40 4 46 25 5 16 7 2 7 -40 0
-41 -3 -56 -7 -40 -6 21 -14 26 -49 28 l-43 3 3 -98 3 -98 47 -3 c46 -3 47 -2
57 30 10 32 10 32 8 -12 l-2 -45 -102 -3 c-58 -1 -103 1 -103 6 0 6 9 12 20
15 18 5 20 14 22 89 l2 83 6 -85 c4 -57 6 -16 6 125 0 136 -2 182 -6 130 l-6
-80 -2 83 c-2 65 -5 82 -17 82 -8 0 -15 4 -15 8 0 8 161 5 188 -3z m452 -5 c0
-8 3 -26 7 -39 4 -17 3 -22 -5 -17 -7 4 -12 16 -12 27 0 18 -6 20 -47 17 l-48
-3 -3 -206 -2 -207 22 -7 c20 -7 18 -9 -15 -12 -20 -2 -52 -2 -70 0 -29 4 -30
5 -9 12 19 6 22 15 24 59 l1 51 7 -55 c4 -30 8 -53 10 -50 8 12 6 411 -1 416
-5 3 -10 -14 -10 -38 l-2 -43 -6 40 c-6 40 -6 40 -53 43 -44 3 -48 1 -48 -20
0 -13 -5 -30 -11 -38 -8 -12 -9 -10 -5 10 3 14 6 36 6 50 l0 25 135 0 c113 0
135 -2 135 -15z m187 5 c27 -6 63 -79 63 -127 0 -21 -10 -50 -24 -70 l-23 -35
44 -94 c25 -52 52 -102 61 -111 14 -16 14 -18 -2 -18 -26 0 -54 18 -66 43 -11
21 -10 21 4 3 29 -36 23 -12 -16 73 -29 61 -42 81 -48 71 -7 -12 -10 -11 -16
3 -3 9 -17 17 -30 17 -23 0 -24 -3 -24 -64 0 -81 9 -126 26 -126 7 0 16 -4 19
-10 4 -6 -18 -10 -59 -10 -37 0 -66 4 -66 10 0 6 6 10 14 10 19 0 25 31 28
145 l2 100 6 -125 c5 -105 6 -90 6 90 0 145 -2 186 -6 125 l-6 -90 -2 88 c-2
73 -5 89 -19 94 -43 17 70 23 134 8z m286 3 c-2 -5 -10 -8 -18 -8 -22 0 -25
-25 -25 -230 l0 -198 35 -6 c19 -4 44 -2 55 4 19 10 20 20 20 216 0 184 -2
205 -17 211 -29 11 27 21 93 17 74 -6 95 -25 102 -92 4 -51 -17 -112 -41 -112
-6 -1 0 -11 14 -23 37 -31 49 -59 49 -112 0 -65 -22 -102 -68 -115 -44 -13
-350 -9 -314 4 18 7 22 17 24 55 l1 46 4 -40 c3 -22 9 -44 14 -49 5 -6 9 71 9
202 0 135 -4 212 -10 212 -5 0 -11 -15 -12 -32 l-1 -33 -4 34 c-3 22 -11 35
-24 38 -39 10 -17 18 50 18 38 0 67 -3 64 -7z m694 -44 c2 -47 -4 -45 -21 8
-3 10 -17 20 -31 24 -33 8 -62 -17 -71 -62 -6 -31 -7 -29 89 -148 54 -66 56
-154 6 -207 -25 -27 -33 -30 -81 -27 l-53 3 -2 55 c-2 52 -1 53 8 20 27 -94
119 -73 119 28 0 34 3 43 10 32 8 -12 10 -11 10 7 0 12 -23 49 -51 83 -27 33
-57 75 -64 93 -11 24 -14 27 -15 11 0 -24 47 -98 84 -133 14 -14 26 -29 26
-35 -1 -17 -88 85 -106 123 -25 51 -14 128 21 158 22 20 36 23 74 20 l46 -4 2
-49z m-2400 -4 l2 -45 -11 38 c-10 38 -11 38 -57 35 l-46 -3 -3 -92 -3 -93 39
0 c32 0 40 4 49 28 10 24 11 19 11 -38 0 -55 -1 -61 -10 -37 -8 23 -15 27 -49
27 l-40 0 3 -97 3 -98 47 -3 c46 -3 47 -2 57 30 l9 33 1 -43 c1 -27 -4 -45
-12 -48 -8 -3 -56 -3 -108 -1 -64 2 -87 6 -71 11 22 8 22 10 22 217 0 187 -2
209 -17 218 -13 8 9 10 82 8 l100 -2 2 -45z m2210 0 l2 -45 -13 35 c-12 33
-16 35 -57 35 l-44 0 -3 -92 -3 -93 36 0 c29 0 37 5 45 25 15 40 20 30 19 -37
-1 -56 -2 -60 -12 -35 -9 23 -17 27 -49 27 l-38 0 0 -100 0 -100 49 0 c47 0
50 2 56 31 10 44 18 28 10 -20 l-7 -41 -99 0 c-91 0 -127 10 -79 23 18 5 20
14 22 114 l2 108 6 -115 c5 -91 6 -70 6 100 0 141 -2 186 -6 130 l-6 -85 -2
82 c-2 66 -5 84 -19 92 -13 8 9 10 82 8 l99 -2 3 -45z m-2650 -650 c6 -35 20
-40 25 -9 4 30 33 48 50 31 30 -30 26 -218 -5 -250 -15 -15 -18 -15 -33 -1 -8
9 -18 41 -21 72 -3 32 -9 57 -12 57 -19 -1 -43 -55 -39 -91 2 -21 0 -39 -4
-39 -5 0 -8 58 -8 130 0 124 1 130 20 130 15 0 22 -9 27 -30z m481 5 c7 -14
12 -66 12 -114 0 -71 -4 -93 -18 -111 -17 -21 -19 -21 -34 -6 -44 44 -31 256
16 256 7 0 18 -11 24 -25z"/>
<path d="M4345 938 c-3 -18 -5 -64 -3 -103 2 -58 6 -70 21 -73 11 -2 30 6 43
19 19 18 24 33 25 78 2 55 2 55 9 16 4 -22 8 -33 10 -25 6 32 -1 73 -16 94
-16 21 -16 21 -9 -4 l6 -25 -21 28 c-30 38 -57 36 -65 -5z"/>
<path d="M4822 663 l3 -98 50 0 c43 1 52 4 63 25 18 34 10 126 -12 148 -16 16
-16 15 -1 -20 19 -46 19 -95 0 -128 -17 -30 -18 -26 -5 20 22 75 -13 150 -71
150 l-30 0 3 -97z"/>
</g>
</svg>
